HIERARCHY
ROOT Hips
{
	OFFSET 1.580335 -0.173402 -0.090427
	CHANNELS 6 Xposition Yposition Zposition Zrotation Yrotation Xrotation 
	JOINT Spine
	{
		OFFSET 0.000006 8.340407 -2.713963
		CHANNELS 3 Zrotation Yrotation Xrotation
		JOINT Spine1
		{
			OFFSET 0.000005 11.910018 -2.100078
			CHANNELS 3 Zrotation Yrotation Xrotation
			JOINT Spine2
			{
				OFFSET -0.000011 12.047661 -1.054059
				CHANNELS 3 Zrotation Yrotation Xrotation
				JOINT Spine3
				{
					OFFSET 0.000033 12.093739 0.000047
					CHANNELS 3 Zrotation Yrotation Xrotation
					JOINT Neck
					{
						OFFSET -0.000064 15.549117 1.554893
						CHANNELS 3 Zrotation Yrotation Xrotation
						JOINT Neck1
						{
							OFFSET 0.000012 4.687325 0.410090
							CHANNELS 3 Zrotation Yrotation Xrotation
							JOINT Head
							{
								OFFSET 0.000052 4.633800 0.817054
								CHANNELS 3 Zrotation Yrotation Xrotation
								JOINT HeadEnd
								{
									OFFSET 0.000007 9.727789 -0.000010
									CHANNELS 3 Zrotation Yrotation Xrotation
									End Site
									{
										OFFSET 0.000000 0.000000 0.000000
									}
								}
							}
						}
					}
					JOINT RightShoulder
					{
						OFFSET 0.000028 11.106495 6.072588
						CHANNELS 3 Zrotation Yrotation Xrotation
						JOINT RightArm
						{
							OFFSET -19.427905 0.000080 0.000019
							CHANNELS 3 Zrotation Yrotation Xrotation
							JOINT RightForeArm
							{
								OFFSET -29.350715 0.000015 0.000022
								CHANNELS 3 Zrotation Yrotation Xrotation
								JOINT RightHand
								{
									OFFSET -27.018053 0.000025 0.000101
									CHANNELS 3 Zrotation Yrotation Xrotation
									JOINT RightHandMiddle1
									{
										OFFSET -9.244020 -0.000010 -0.000000
										CHANNELS 3 Zrotation Yrotation Xrotation
										JOINT RightHandMiddle2
										{
											OFFSET -4.870062 -0.000015 -0.000016
											CHANNELS 3 Zrotation Yrotation Xrotation
											JOINT RightHandMiddle3
											{
												OFFSET -3.169084 0.000007 0.000012
												CHANNELS 3 Zrotation Yrotation Xrotation
												JOINT RightHandMiddle4
												{
													OFFSET -1.888353 -0.000004 -0.000008
													CHANNELS 3 Zrotation Yrotation Xrotation
													End Site
													{
														OFFSET 0.000000 0.000000 0.000000
													}
												}
											}
										}
									}
									JOINT RightHandRing
									{
										OFFSET -0.250018 -0.250012 -0.956466
										CHANNELS 3 Zrotation Yrotation Xrotation
										JOINT RightHandRing1
										{
											OFFSET -8.140209 0.000033 -0.734597
											CHANNELS 3 Zrotation Yrotation Xrotation
											JOINT RightHandRing2
											{
												OFFSET -4.501564 -0.000018 -0.406239
												CHANNELS 3 Zrotation Yrotation Xrotation
												JOINT RightHandRing3
												{
													OFFSET -3.068836 -0.000007 -0.276936
													CHANNELS 3 Zrotation Yrotation Xrotation
													JOINT RightHandRing4
													{
														OFFSET -1.869944 -0.000006 -0.168767
														CHANNELS 3 Zrotation Yrotation Xrotation
														End Site
														{
															OFFSET 0.000000 0.000000 0.000000
														}
													}
												}
											}
										}
										JOINT RightHandPinky
										{
											OFFSET -0.163060 -0.249983 -0.975116
											CHANNELS 3 Zrotation Yrotation Xrotation
											JOINT RightHandPinky1
											{
												OFFSET -6.681460 -0.000007 -1.494092
												CHANNELS 3 Zrotation Yrotation Xrotation
												JOINT RightHandPinky2
												{
													OFFSET -3.580951 -0.000005 -0.800779
													CHANNELS 3 Zrotation Yrotation Xrotation
													JOINT RightHandPinky3
													{
														OFFSET -2.276530 -0.000026 -0.509064
														CHANNELS 3 Zrotation Yrotation Xrotation
														JOINT RightHandPinky4
														{
															OFFSET -1.690363 -0.000013 -0.377978
															CHANNELS 3 Zrotation Yrotation Xrotation
															End Site
															{
																OFFSET 0.000000 0.000000 0.000000
															}
														}
													}
												}
											}
										}
									}
									JOINT RightHandIndex
									{
										OFFSET -0.249984 -0.250005 0.956484
										CHANNELS 3 Zrotation Yrotation Xrotation
										JOINT RightHandIndex1
										{
											OFFSET -8.934064 0.000031 0.806257
											CHANNELS 3 Zrotation Yrotation Xrotation
											JOINT RightHandIndex2
											{
												OFFSET -4.694668 -0.000004 0.423675
												CHANNELS 3 Zrotation Yrotation Xrotation
												JOINT RightHandIndex3
												{
													OFFSET -2.811736 0.000016 0.253706
													CHANNELS 3 Zrotation Yrotation Xrotation
													JOINT RightHandIndex4
													{
														OFFSET -1.709903 -0.000013 0.154272
														CHANNELS 3 Zrotation Yrotation Xrotation
														End Site
														{
															OFFSET 0.000000 0.000000 0.000000
														}
													}
												}
											}
										}
										JOINT RightHandThumb1
										{
											OFFSET -0.162999 -0.750007 0.975093
											CHANNELS 3 Zrotation Yrotation Xrotation
											JOINT RightHandThumb2
											{
												OFFSET -5.411690 0.835524 2.244684
												CHANNELS 3 Zrotation Yrotation Xrotation
												JOINT RightHandThumb3
												{
													OFFSET -3.567158 0.550734 1.479635
													CHANNELS 3 Zrotation Yrotation Xrotation
													JOINT RightHandThumb4
													{
														OFFSET -2.150541 0.332035 0.892039
														CHANNELS 3 Zrotation Yrotation Xrotation
														End Site
														{
															OFFSET 0.000000 0.000000 0.000000
														}
													}
												}
											}
										}
									}
								}
							}
						}
					}
					JOINT LeftShoulder
					{
						OFFSET 0.000023 11.106468 6.072652
						CHANNELS 3 Zrotation Yrotation Xrotation
						JOINT LeftArm
						{
							OFFSET 19.427885 -0.000034 -0.000026
							CHANNELS 3 Zrotation Yrotation Xrotation
							JOINT LeftForeArm
							{
								OFFSET 29.350776 -0.000009 0.000020
								CHANNELS 3 Zrotation Yrotation Xrotation
								JOINT LeftHand
								{
									OFFSET 27.018094 -0.000046 0.000031
									CHANNELS 3 Zrotation Yrotation Xrotation
									JOINT LeftHandMiddle1
									{
										OFFSET 9.402655 0.000020 -0.000020
										CHANNELS 3 Zrotation Yrotation Xrotation
										JOINT LeftHandMiddle2
										{
											OFFSET 4.950124 0.000005 -0.000011
											CHANNELS 3 Zrotation Yrotation Xrotation
											JOINT LeftHandMiddle3
											{
												OFFSET 3.211962 0.000002 -0.000015
												CHANNELS 3 Zrotation Yrotation Xrotation
												JOINT LeftHandMiddle4
												{
													OFFSET 1.927627 0.000020 -0.000001
													CHANNELS 3 Zrotation Yrotation Xrotation
													End Site
													{
														OFFSET 0.000000 0.000000 0.000000
													}
												}
											}
										}
									}
									JOINT LeftHandRing
									{
										OFFSET 0.249974 -0.250012 -0.906144
										CHANNELS 3 Zrotation Yrotation Xrotation
										JOINT LeftHandRing1
										{
											OFFSET 8.286058 -0.000007 -0.747814
											CHANNELS 3 Zrotation Yrotation Xrotation
											JOINT LeftHandRing2
											{
												OFFSET 4.585520 0.000013 -0.413793
												CHANNELS 3 Zrotation Yrotation Xrotation
												JOINT LeftHandRing3
												{
													OFFSET 3.124461 0.000017 -0.281967
													CHANNELS 3 Zrotation Yrotation Xrotation
													JOINT LeftHandRing4
													{
														OFFSET 1.908779 -0.000007 -0.172239
														CHANNELS 3 Zrotation Yrotation Xrotation
														End Site
														{
															OFFSET 0.000000 0.000000 0.000000
														}
													}
												}
											}
										}
										JOINT LeftHandPinky
										{
											OFFSET 0.167542 -0.249992 -0.924958
											CHANNELS 3 Zrotation Yrotation Xrotation
											JOINT LeftHandPinky1
											{
												OFFSET 6.823484 0.000019 -1.525920
												CHANNELS 3 Zrotation Yrotation Xrotation
												JOINT LeftHandPinky2
												{
													OFFSET 3.642801 -0.000024 -0.814584
													CHANNELS 3 Zrotation Yrotation Xrotation
													JOINT LeftHandPinky3
													{
														OFFSET 2.333149 0.000001 -0.521729
														CHANNELS 3 Zrotation Yrotation Xrotation
														JOINT LeftHandPinky4
														{
															OFFSET 1.725454 0.000006 -0.385872
															CHANNELS 3 Zrotation Yrotation Xrotation
															End Site
															{
																OFFSET 0.000000 0.000000 0.000000
															}
														}
													}
												}
											}
										}
									}
									JOINT LeftHandIndex
									{
										OFFSET 0.250007 -0.250001 0.906127
										CHANNELS 3 Zrotation Yrotation Xrotation
										JOINT LeftHandIndex1
										{
											OFFSET 9.087984 -0.000020 0.820153
											CHANNELS 3 Zrotation Yrotation Xrotation
											JOINT LeftHandIndex2
											{
												OFFSET 4.776533 -0.000013 0.431049
												CHANNELS 3 Zrotation Yrotation Xrotation
												JOINT LeftHandIndex3
												{
													OFFSET 2.865151 0.000023 0.258582
													CHANNELS 3 Zrotation Yrotation Xrotation
													JOINT LeftHandIndex4
													{
														OFFSET 1.745464 -0.000000 0.157488
														CHANNELS 3 Zrotation Yrotation Xrotation
														End Site
														{
															OFFSET 0.000000 0.000000 0.000000
														}
													}
												}
											}
										}
										JOINT LeftHandThumb1
										{
											OFFSET 0.167563 -0.749998 0.924951
											CHANNELS 3 Zrotation Yrotation Xrotation
											JOINT LeftHandThumb2
											{
												OFFSET 5.551493 0.857115 2.302696
												CHANNELS 3 Zrotation Yrotation Xrotation
												JOINT LeftHandThumb3
												{
													OFFSET 3.625645 0.559726 1.503901
													CHANNELS 3 Zrotation Yrotation Xrotation
													JOINT LeftHandThumb4
													{
														OFFSET 2.195247 0.338907 0.910546
														CHANNELS 3 Zrotation Yrotation Xrotation
														End Site
														{
															OFFSET 0.000000 0.000000 0.000000
														}
													}
												}
											}
										}
									}
								}
							}
						}
					}
				}
			}
		}
	}
	JOINT RightUpLeg
	{
		OFFSET -8.786551 0.000019 -0.000028
		CHANNELS 3 Zrotation Yrotation Xrotation
		JOINT RightLeg
		{
			OFFSET -0.000060 -42.170427 -0.000079
			CHANNELS 3 Zrotation Yrotation Xrotation
			JOINT RightFoot
			{
				OFFSET 0.000081 -45.949166 0.000042
				CHANNELS 3 Zrotation Yrotation Xrotation
				JOINT RightForeFoot
				{
					OFFSET 0.000018 -4.685838 -0.000007
					CHANNELS 3 Zrotation Yrotation Xrotation
					JOINT RightToeBase
					{
						OFFSET -0.000050 0.000018 18.351131
						CHANNELS 3 Zrotation Yrotation Xrotation
						JOINT RightToeBaseEnd
						{
							OFFSET 0.000035 0.000011 6.416914
							CHANNELS 3 Zrotation Yrotation Xrotation
							End Site
							{
								OFFSET 0.000000 0.000000 0.000000
							}
						}
					}
				}
			}
		}
	}
	JOINT LeftUpLeg
	{
		OFFSET 8.786557 -0.000058 -0.000030
		CHANNELS 3 Zrotation Yrotation Xrotation
		JOINT LeftLeg
		{
			OFFSET -0.000008 -42.170424 0.000032
			CHANNELS 3 Zrotation Yrotation Xrotation
			JOINT LeftFoot
			{
				OFFSET -0.000027 -45.949188 0.000020
				CHANNELS 3 Zrotation Yrotation Xrotation
				JOINT LeftForeFoot
				{
					OFFSET 0.000061 -4.685796 0.000041
					CHANNELS 3 Zrotation Yrotation Xrotation
					JOINT LeftToeBase
					{
						OFFSET 0.000034 -0.000060 18.351046
						CHANNELS 3 Zrotation Yrotation Xrotation
						JOINT LeftToeBaseEnd
						{
							OFFSET -0.000044 -0.000013 7.522046
							CHANNELS 3 Zrotation Yrotation Xrotation
							End Site
							{
								OFFSET 0.000000 0.000000 0.000000
							}
						}
					}
				}
			}
		}
	}
}
MOTION
Frames: 5
Frame Time: 0.066667
-2.625528 -1.013547 4.012330 -6.835750 17.237558 -6.689306 8.572885 -1.015882 5.358828 -0.354608 -0.190957 -2.020952 0.096974 -0.126749 -1.054261 1.815617 0.694653 8.854628 5.761039 -2.662992 5.969311 -7.986853 1.560586 1.239180 -4.789235 0.958623 2.040129 -0.001050 -0.000135 0.000289 7.813629 -12.408802 -1.676709 66.588699 15.107295 -8.419183 179.997208 65.010460 161.380493 -35.868977 -4.497912 0.020592 25.172983 -9.135179 -0.003335 17.385828 -0.000990 0.001349 9.725135 -0.002022 0.001641 -0.001537 0.000119 0.000586 -1.008832 -1.875826 -5.914381 29.497194 -7.080804 -2.534711 38.111622 1.106399 -3.194016 9.398759 0.071994 -0.844476 0.001300 0.003084 0.000214 -1.891162 -3.913394 -4.882258 19.906898 -1.305155 -4.336068 39.525635 2.940589 -8.181145 28.634436 1.568462 -6.151967 0.000674 -0.003240 0.000512 0.195921 6.833065 0.213450 15.688804 -9.711400 1.431762 5.882987 0.008742 0.533183 7.261400 -0.040715 0.653420 0.000774 0.000256 -0.000084 11.801059 -4.426007 50.206573 -4.403340 5.160217 -1.037744 -9.062339 5.362342 -3.272356 -0.000669 -0.000944 0.000214 -11.613596 6.595006 -1.358109 -61.894268 -9.756087 -8.333162 179.997711 -62.336803 167.488205 8.092453 21.302008 0.144612 -20.500340 5.622383 0.001274 -51.118904 0.003300 0.000258 -23.889332 0.002265 -0.000600 0.001735 0.001043 -0.001165 -0.458256 1.816957 -10.442978 -17.784586 4.341868 -1.569607 -57.501541 -2.401360 -4.362280 -13.927705 -0.151715 -1.243427 -0.000176 0.000499 0.001393 -0.321014 1.740065 -5.032811 -6.643650 6.762120 -1.464342 -44.484249 -3.666149 -9.015405 -29.862047 -1.694317 -6.388366 -0.000254 -0.002469 -0.001547 -0.555469 -6.777318 -3.512117 -21.676554 13.715034 1.995936 -40.051529 1.210698 3.327337 -19.575415 0.298333 1.734263 -0.001455 0.000404 -0.001192 -15.125943 7.255892 51.098740 -3.012370 4.763303 0.514316 0.000000 0.000000 0.000000 0.000785 0.000742 -0.001799 12.297680 -7.325816 11.770927 0.000525 -0.003780 0.359737 0.000000 0.000000 -0.000000 -0.000000 0.000000 0.000000 0.000000 0.000000 0.000000 0.000000 0.000000 0.000000 16.991180 11.551155 -3.198847 -0.000442 0.000894 11.657718 -0.000000 -0.000000 -0.000000 -0.000000 -0.000000 -0.000000 -0.000000 0.000000 0.000000 0.000000 0.000000 0.000000 
-2.562918 -1.009472 4.046252 -6.819434 17.210997 -6.606010 8.583259 -1.002713 5.455924 -0.353474 -0.188791 -2.010474 0.087151 -0.068202 -1.044305 1.782145 0.700691 8.900061 5.613719 -2.219158 5.945236 -8.017271 2.095693 1.129249 -4.849848 1.001134 2.042679 -0.001024 -0.000076 0.000273 7.794179 -12.438568 -1.679785 66.302567 15.144285 -9.065786 179.997025 64.898552 161.320175 -35.897964 -4.508847 0.022257 24.297642 -9.422152 -0.001832 17.111883 -0.000753 0.001389 9.168046 -0.002232 0.001517 -0.000950 0.000199 0.000599 -1.116590 -1.912194 -5.584887 28.481018 -7.254386 -2.455371 37.982822 1.100869 -3.184323 9.028481 0.065355 -0.811212 0.001243 0.002703 0.000510 -1.883042 -4.006108 -4.861443 19.580219 -1.498502 -4.265370 39.392597 2.915017 -8.158578 28.867891 1.589865 -6.198231 0.000936 -0.003407 0.000576 0.324562 6.830835 0.520314 15.753946 -9.670431 1.438048 6.108258 0.003374 0.553676 6.921380 -0.034993 0.623118 0.000742 -0.000060 0.000001 11.916263 -4.911271 50.634525 -3.647202 5.575819 -0.621042 -9.010464 5.334995 -3.246227 -0.000436 -0.000984 0.000474 -11.585167 6.671854 -1.371122 -61.751762 -9.692898 -8.740571 179.998093 -62.204086 167.395782 8.423513 21.289146 0.148959 -19.836060 5.768524 0.002278 -50.870434 0.003136 0.000589 -23.608465 0.001998 -0.000844 0.002003 0.001069 -0.001305 -0.470866 1.820127 -10.453402 -17.405151 4.363170 -1.537841 -57.295444 -2.384318 -4.352207 -13.770676 -0.148330 -1.229807 -0.000055 0.000362 0.001508 -0.365032 1.705538 -5.075523 -6.639731 6.858926 -1.462134 -44.326141 -3.627179 -8.989865 -29.665380 -1.674053 -6.349639 0.000260 -0.002727 -0.001646 -0.550002 -6.760099 -3.463377 -21.143221 13.647776 1.950772 -39.812855 1.192637 3.310850 -19.421288 0.292384 1.721457 -0.001416 0.000404 -0.001597 -15.202964 7.227911 51.054359 -3.147041 4.639974 0.582149 0.000000 0.000000 0.000000 0.000840 0.000725 -0.002158 12.341381 -7.490998 11.718777 0.000735 -0.003800 0.289759 0.000000 0.000000 -0.000000 -0.000000 0.000000 0.000000 0.000000 0.000000 0.000000 0.000000 0.000000 0.000000 16.948650 11.587420 -3.281473 -0.000526 0.001090 11.568452 -0.000000 -0.000000 -0.000000 -0.000000 -0.000000 -0.000000 -0.000000 0.000000 0.000000 0.000000 0.000000 0.000000 
-2.552347 -1.000976 4.046132 -6.812732 17.134598 -6.524370 8.608057 -0.988043 5.547875 -0.351159 -0.186231 -2.000508 0.080962 -0.006042 -1.036954 1.758877 0.710754 8.936528 5.468455 -1.844181 5.933726 -8.056905 2.540261 1.004837 -4.905075 1.037155 2.026371 -0.000971 -0.000024 0.000363 7.791810 -12.465173 -1.684631 66.174202 15.028255 -9.569984 179.996933 64.734985 161.420441 -35.993843 -4.248103 0.021493 23.942379 -9.490010 -0.000362 17.317461 -0.000607 0.001433 9.015471 -0.002378 0.001589 -0.000196 0.000359 0.000664 -1.208728 -1.956170 -5.339762 27.867620 -7.297472 -2.407369 38.330734 1.124941 -3.208537 8.778063 0.060981 -0.788368 0.001265 0.002444 0.000625 -1.872199 -4.108497 -4.747250 19.435339 -1.576367 -4.235664 39.247810 2.890891 -8.134104 29.108608 1.616632 -6.246027 0.001121 -0.003398 0.000645 0.507288 6.883530 0.680389 16.907564 -9.829847 1.548179 7.602904 -0.065799 0.687923 7.103577 -0.041792 0.639748 0.000739 -0.000210 0.000200 12.093753 -5.807877 51.410355 -2.519294 5.887758 -0.073847 -8.618914 5.105177 -3.103499 -0.000211 -0.001011 0.000511 -11.579969 6.742182 -1.385750 -61.657726 -9.552994 -8.943581 179.998505 -62.049740 167.477417 8.570290 21.289551 0.155681 -19.100290 5.897069 0.003242 -50.990505 0.002680 0.000764 -23.449718 0.001477 -0.001084 0.002212 0.001030 -0.001360 -0.479243 1.859499 -10.468892 -16.791006 4.375197 -1.486047 -57.537987 -2.406110 -4.364315 -13.631088 -0.145641 -1.217829 0.000130 0.000297 0.001583 -0.400091 1.716796 -5.085026 -6.340989 7.020922 -1.395475 -44.424637 -3.634569 -9.005686 -29.601919 -1.668531 -6.337389 0.000715 -0.003140 -0.001598 -0.595240 -6.773520 -3.435124 -20.977648 13.674739 1.938448 -40.352104 1.226500 3.348274 -19.511255 0.295060 1.729466 -0.001422 0.000379 -0.001947 -15.405217 7.466206 51.117542 -3.388481 4.552511 0.683286 0.000000 0.000000 0.000000 0.000758 0.000781 -0.002402 12.368110 -7.544210 11.647940 0.000720 -0.003407 0.218231 0.000000 0.000000 -0.000000 -0.000000 0.000000 0.000000 0.000000 0.000000 0.000000 0.000000 0.000000 0.000000 16.949003 11.580820 -3.375258 -0.000582 0.001253 11.496541 -0.000000 -0.000000 -0.000000 -0.000000 -0.000000 -0.000000 -0.000000 0.000000 0.000000 0.000000 0.000000 0.000000 
-2.560712 -0.990267 4.075155 -6.809605 17.008656 -6.463046 8.637361 -0.972255 5.641171 -0.349746 -0.183275 -1.991087 0.073064 0.055252 -1.032442 1.735741 0.723628 8.961690 5.364509 -1.569991 5.879715 -8.119706 2.887281 0.888974 -4.961198 1.067017 2.003505 -0.000826 0.000112 0.000602 7.803414 -12.486281 -1.688373 66.232681 14.649863 -9.865366 179.996643 64.731979 161.598602 -36.288628 -3.842553 0.018024 24.130989 -9.339055 0.000239 18.010612 -0.000607 0.001506 9.292677 -0.002559 0.001694 0.000460 0.000636 0.000864 -1.274686 -1.986253 -5.201787 27.616100 -7.201407 -2.387694 38.989296 1.168612 -3.254501 8.700759 0.059548 -0.780844 0.001217 0.002358 0.000600 -1.857614 -4.180958 -4.612286 19.312046 -1.615126 -4.210909 39.082798 2.868456 -8.105779 29.309231 1.642942 -6.285973 0.001177 -0.003298 0.000584 0.700429 6.977467 0.654624 18.946417 -10.164327 1.740228 10.170460 -0.183273 0.917071 7.802937 -0.059212 0.702538 0.000785 -0.000217 0.000432 12.266508 -6.946640 52.457737 -1.197660 6.022750 0.513265 -7.906546 4.687224 -2.846099 -0.000177 -0.001028 0.000318 -11.603974 6.805696 -1.402269 -61.631565 -9.230575 -8.752125 179.998901 -61.910866 167.759827 8.596056 21.347792 0.161004 -18.394201 6.006032 0.004071 -51.428135 0.002083 0.000920 -23.430946 0.000876 -0.001411 0.002139 0.001047 -0.001326 -0.476287 1.934536 -10.448217 -16.059361 4.358670 -1.424075 -58.054024 -2.452190 -4.389421 -13.508689 -0.143345 -1.207464 0.000297 0.000285 0.001551 -0.422942 1.783533 -5.058733 -5.801186 7.176396 -1.276265 -44.714554 -3.677283 -9.052186 -29.616398 -1.671396 -6.341026 0.001032 -0.003548 -0.001551 -0.690252 -6.814420 -3.419836 -21.207640 13.837272 1.962424 -41.683834 1.312884 3.439324 -19.957064 0.310781 1.767623 -0.001530 0.000231 -0.002162 -15.716005 7.908098 51.299171 -3.751348 4.480090 0.825200 0.000000 0.000000 0.000000 0.000723 0.000885 -0.002438 12.370441 -7.491855 11.564285 0.000569 -0.002755 0.166334 0.000000 0.000000 -0.000000 -0.000000 0.000000 0.000000 0.000000 0.000000 0.000000 0.000000 0.000000 0.000000 16.997257 11.498956 -3.441277 -0.000631 0.001220 11.451961 -0.000000 -0.000000 -0.000000 -0.000000 -0.000000 -0.000000 -0.000000 0.000000 0.000000 0.000000 0.000000 0.000000 
-2.539662 -0.979944 4.083310 -6.801740 16.911903 -6.392319 8.667209 -0.957100 5.714743 -0.348462 -0.179873 -1.985944 0.062849 0.117634 -1.026674 1.706282 0.737171 8.984498 5.266020 -1.342482 5.803395 -8.173798 3.187685 0.791811 -5.013929 1.093568 1.995148 -0.000635 0.000265 0.000931 7.791687 -12.496958 -1.684964 66.319908 14.341015 -10.078161 179.996368 64.868103 161.656845 -36.799149 -3.637317 0.014278 24.724264 -9.033043 0.000104 19.551519 -0.000659 0.001575 10.163436 -0.002679 0.001927 0.000928 0.000950 0.001063 -1.326382 -2.014421 -5.139855 27.673107 -7.003157 -2.392503 40.327663 1.251873 -3.347416 9.011649 0.064277 -0.808019 0.001250 0.002342 0.000421 -1.853990 -4.262881 -4.449742 19.343845 -1.510742 -4.221097 39.382465 2.914332 -8.158546 29.782717 1.697785 -6.379103 0.001068 -0.003149 0.000495 0.908724 7.106878 0.501293 21.713291 -10.638659 1.995227 14.065842 -0.339573 1.261015 9.211080 -0.089156 0.828322 0.000791 -0.000089 0.000701 12.461442 -8.238722 53.689957 0.336036 5.897516 1.138207 -6.759170 4.013331 -2.430879 -0.000182 -0.001096 -0.000077 -11.635367 6.849650 -1.416097 -61.588795 -8.988360 -8.394670 179.998993 -61.616402 168.169159 8.640447 21.293266 0.159375 -17.777451 6.082403 0.004299 -52.178677 0.001425 0.000918 -23.575989 0.000309 -0.001768 0.001967 0.001024 -0.001336 -0.459700 2.028345 -10.400085 -15.262589 4.323644 -1.356053 -59.060505 -2.537979 -4.436893 -13.481588 -0.143353 -1.205410 0.000446 0.000293 0.001500 -0.425730 1.899908 -4.987018 -5.034889 7.272323 -1.108029 -45.388359 -3.791988 -9.159617 -29.857162 -1.700015 -6.389138 0.001219 -0.003855 -0.001357 -0.827986 -6.870086 -3.399549 -21.856777 14.065942 2.022744 -43.572117 1.435524 3.565083 -20.692251 0.337512 1.830079 -0.001651 -0.000029 -0.002326 -16.126230 8.532433 51.524811 -4.141587 4.424464 0.974193 0.000000 0.000000 0.000000 0.000625 0.001054 -0.002382 12.348505 -7.435774 11.465805 0.000222 -0.001979 0.136590 0.000000 0.000000 -0.000000 -0.000000 0.000000 0.000000 -0.000000 0.000000 0.000000 0.000000 0.000000 0.000000 17.039581 11.381495 -3.499141 -0.000670 0.001101 11.404827 -0.000000 -0.000000 -0.000000 -0.000000 -0.000000 -0.000000 -0.000000 0.000000 0.000000 0.000000 0.000000 0.000000 
